<?xml version="1.0" encoding="UTF-8"?>
<svg width="200" height="200" viewBox="0 0 200 200" xmlns="http://www.w3.org/2000/svg">
  <g>
    <path fill="#FF9933" d="M100 180c-44.183 0-80-35.817-80-80s35.817-80 80-80 80 35.817 80 80-35.817 80-80 80zm0-150c-38.598 0-70 31.402-70 70s31.402 70 70 70 70-31.402 70-70-31.402-70-70-70z"/>
    <path fill="#FF9933" d="M65 90c0-8.284 6.716-15 15-15s15 6.716 15 15-6.716 15-15 15-15-6.716-15-15zm40 0c0-8.284 6.716-15 15-15s15 6.716 15 15-6.716 15-15 15-15-6.716-15-15z"/>
    <path fill="#333333" d="M100 140c-16.569 0-30-13.431-30-30 0-5.523 4.477-10 10-10s10 4.477 10 10c0 5.514 4.486 10 10 10s10-4.486 10-10c0-5.523 4.477-10 10-10s10 4.477 10 10c0 16.569-13.431 30-30 30z"/>
  </g>
</svg>
