<?xml version="1.0" standalone="no"?>
<!DOCTYPE svg PUBLIC "-//W3C//DTD SVG 20010904//EN"
 "http://www.w3.org/TR/2001/REC-SVG-20010904/DTD/svg10.dtd">
<svg version="1.0" xmlns="http://www.w3.org/2000/svg"
 width="500.000000pt" height="500.000000pt" viewBox="0 0 500.000000 500.000000"
 preserveAspectRatio="xMidYMid meet">

<g transform="translate(0.000000,500.000000) scale(0.100000,-0.100000)"
fill="#000000" stroke="none">
<path d="M1770 4158 c-139 -65 -412 -205 -438 -224 -48 -37 -81 -74 -105 -119
-18 -33 -22 -56 -22 -135 0 -88 2 -100 34 -163 65 -130 169 -210 272 -210 l56
0 -10 -46 c-5 -25 -10 -100 -10 -166 -1 -106 3 -129 28 -203 15 -45 47 -111
70 -146 l42 -63 -58 -264 c-33 -145 -57 -269 -55 -276 6 -15 64 -45 75 -39 5
3 11 25 15 48 7 45 33 158 66 291 11 43 20 85 20 95 0 9 4 23 9 31 8 12 18 7
54 -26 57 -52 97 -73 142 -73 32 0 35 2 35 29 0 23 -11 38 -52 72 -96 77 -149
133 -199 207 -61 89 -82 137 -99 225 -18 95 -3 201 54 380 7 23 18 60 24 82
81 291 154 405 304 475 216 101 582 118 851 41 197 -57 305 -171 375 -396 38
-122 93 -318 108 -380 29 -128 6 -269 -61 -384 -35 -59 -155 -188 -249 -268
-50 -43 -48 -77 6 -81 40 -3 64 9 136 68 24 19 46 35 50 35 4 0 10 -16 14 -35
4 -19 11 -53 16 -75 34 -145 54 -233 57 -250 12 -60 23 -106 28 -111 8 -8 67
25 73 41 5 13 -101 509 -113 528 -2 4 12 29 31 56 89 121 126 279 107 455 -6
52 -11 101 -11 109 0 9 14 13 48 13 110 1 223 96 287 244 29 65 28 210 -2 265
-47 89 -100 126 -393 272 -152 77 -156 78 -230 78 -83 0 -139 -21 -198 -74
-29 -26 -36 -28 -70 -19 -141 36 -294 51 -458 44 -116 -6 -181 -15 -304 -45
-32 -7 -40 -4 -74 25 -21 18 -54 40 -74 50 -44 22 -166 29 -202 12z m125 -84
l37 -15 -52 -52 c-88 -87 -163 -217 -216 -372 -25 -75 -81 -189 -101 -207 -10
-8 -28 -21 -40 -27 -51 -26 -153 51 -204 157 -18 36 -23 64 -24 122 0 65 4 81
28 117 16 26 48 55 79 73 84 49 429 220 443 220 7 0 29 -7 50 -16z m1494 -91
c244 -123 290 -158 314 -239 33 -111 -36 -264 -149 -330 -40 -23 -48 -25 -75
-14 -44 19 -78 76 -149 253 -68 171 -129 275 -203 347 -26 25 -47 48 -47 52 0
11 52 37 75 38 11 0 116 -48 234 -107z"/>
<path d="M2059 3581 c-69 -22 -122 -71 -141 -132 -10 -34 -9 -42 4 -55 22 -22
48 -10 81 37 54 78 146 80 216 5 27 -29 62 -34 81 -11 18 22 -5 79 -46 113
-55 46 -130 62 -195 43z"/>
<path d="M2812 3575 c-83 -37 -134 -103 -112 -145 11 -21 54 -28 65 -9 4 6 25
24 47 40 72 52 154 34 193 -41 31 -60 92 -45 80 19 -20 106 -173 182 -273 136z"/>
<path d="M2368 3312 c-113 -31 -152 -94 -114 -186 20 -47 76 -100 135 -127 28
-12 51 -25 51 -29 0 -12 -75 -78 -106 -93 -122 -62 -282 -3 -339 123 l-18 40
27 21 c70 55 -26 120 -113 75 -32 -17 -61 -69 -53 -98 4 -15 11 -19 33 -16 25
4 28 1 40 -41 15 -54 40 -102 78 -151 65 -83 98 -142 157 -277 91 -209 137
-265 251 -304 138 -47 280 -1 367 118 19 27 59 104 88 173 49 115 122 243 167
291 24 26 57 93 72 147 11 36 16 42 40 42 35 0 46 28 25 69 -22 41 -54 61 -97
61 -51 0 -69 -8 -80 -39 -9 -22 -7 -29 16 -47 l27 -21 -20 -45 c-56 -128 -200
-180 -338 -122 -37 15 -104 76 -104 93 0 5 16 15 35 21 44 15 128 90 149 134
27 56 21 103 -17 141 -41 41 -88 55 -202 61 -67 3 -107 -1 -157 -14z m83 -645
c4 -132 14 -161 53 -155 35 5 46 44 46 166 l0 113 58 -7 c31 -3 65 -10 74 -15
9 -5 30 -9 47 -9 l31 0 0 -77 c0 -196 -111 -353 -248 -353 -98 0 -168 42 -215
129 -37 68 -57 148 -57 230 l0 69 38 5 c20 4 57 10 82 15 94 20 87 28 91 -111z"/>
<path d="M597 1745 c-4 -9 -7 -162 -7 -340 0 -310 1 -325 19 -335 22 -11 80
-13 105 -4 13 5 16 25 16 114 l0 107 89 7 c103 8 143 19 189 53 51 38 72 90
72 176 0 68 -3 79 -32 123 -25 36 -48 57 -92 79 -56 27 -68 29 -206 33 -131 4
-148 3 -153 -13z m293 -120 c32 -16 60 -61 60 -95 0 -38 -28 -89 -59 -104 -18
-10 -56 -16 -96 -16 l-65 0 0 115 0 115 65 0 c39 0 78 -6 95 -15z"/>
<path d="M2516 1751 c-4 -5 -6 -159 -7 -342 0 -265 2 -334 13 -340 7 -5 97 -9
199 -9 211 0 212 1 207 72 l-3 43 -137 3 -138 3 0 277 c0 203 -3 281 -12 290
-14 14 -114 16 -122 3z"/>
<path d="M1722 1688 c-7 -7 -12 -36 -12 -65 l0 -53 -40 0 c-33 0 -41 -4 -46
-24 -12 -51 -2 -70 43 -80 l42 -10 3 -150 c3 -169 11 -196 67 -233 27 -19 48
-23 105 -23 92 0 118 16 114 68 l-3 37 -55 3 c-86 5 -90 12 -90 169 l0 133 53
0 c70 0 89 15 85 65 l-3 40 -67 3 -68 3 0 45 c0 69 -12 84 -68 84 -27 0 -53
-5 -60 -12z"/>
<path d="M1285 1578 c-62 -22 -110 -65 -140 -125 -26 -51 -30 -68 -30 -143 0
-68 5 -93 22 -126 28 -53 91 -107 142 -122 83 -25 249 -5 281 33 10 12 10 22
0 47 -23 56 -27 58 -73 37 -87 -39 -204 -16 -227 47 -21 54 -23 53 158 56
l167 3 3 64 c3 70 -19 133 -63 177 -55 55 -165 78 -240 52z m137 -109 c18 -10
48 -65 48 -89 0 -6 -41 -10 -110 -10 -62 0 -110 4 -110 9 0 21 20 60 41 80 25
23 96 29 131 10z"/>
<path d="M2165 1578 c-73 -26 -115 -82 -115 -153 0 -77 46 -124 152 -156 96
-29 119 -57 80 -92 -26 -24 -112 -22 -164 3 -50 24 -58 18 -65 -43 -5 -43 -4
-46 28 -63 21 -11 65 -19 116 -22 74 -4 88 -2 136 22 105 51 130 176 50 249
-11 9 -51 28 -90 41 -98 33 -113 43 -113 71 0 44 74 59 154 30 22 -8 43 -12
48 -9 4 3 13 23 20 45 11 37 10 42 -8 52 -58 35 -168 47 -229 25z"/>
<path d="M3116 1570 c-54 -21 -118 -78 -142 -125 -21 -40 -29 -160 -15 -211
16 -58 62 -118 117 -150 38 -23 62 -29 128 -32 74 -4 86 -1 136 25 100 53 146
141 138 263 -8 112 -68 193 -169 230 -67 25 -129 25 -193 0z m163 -114 c41
-22 64 -82 59 -156 -5 -73 -28 -108 -85 -128 -36 -14 -46 -14 -79 -1 -57 22
-84 68 -84 143 0 70 23 124 61 143 32 17 94 16 128 -1z"/>
<path d="M4154 1576 c-37 -13 -84 -44 -102 -65 -7 -9 -25 -41 -40 -71 -21 -43
-26 -70 -26 -125 0 -129 68 -226 178 -256 58 -16 184 -7 232 17 46 22 52 46
25 91 l-20 32 -40 -20 c-49 -23 -140 -25 -182 -3 -27 14 -59 65 -59 94 0 6 58
10 165 10 157 0 165 1 176 21 15 29 3 121 -22 168 -54 100 -178 147 -285 107z
m157 -125 c17 -17 29 -40 29 -55 l0 -26 -105 0 -105 0 0 26 c0 15 12 38 29 55
24 24 38 29 76 29 38 0 52 -5 76 -29z"/>
<path d="M3475 1553 c4 -10 24 -65 45 -123 61 -170 131 -340 147 -356 15 -15
99 -19 120 -6 6 4 26 39 43 77 30 66 160 408 160 420 0 3 -32 5 -71 3 l-71 -3
-13 -40 c-7 -22 -27 -87 -45 -145 -17 -58 -35 -116 -39 -130 -4 -14 -11 -24
-16 -23 -5 1 -34 79 -64 172 l-56 171 -74 0 c-66 0 -72 -2 -66 -17z"/>
</g>
</svg>
